<mxfile host="app.diagrams.net" agent="Mozilla/5.0 (Windows NT 10.0; Win64; x64) AppleWebKit/537.36 (KHTML, like Gecko) Chrome/127.0.0.0 Safari/537.36" version="24.7.6">
  <diagram name="Page-1" id="9mzO7xDXDJAx3P2yzSwm">
    <mxGraphModel dx="1036" dy="595" grid="1" gridSize="10" guides="1" tooltips="1" connect="1" arrows="1" fold="1" page="1" pageScale="1" pageWidth="850" pageHeight="1100" math="0" shadow="0">
      <root>
        <mxCell id="0" />
        <mxCell id="1" parent="0" />
        <mxCell id="-fYDZlwDeqIMfoIdDq_f-17" value="Người dùng" style="html=1;whiteSpace=wrap;" vertex="1" parent="1">
          <mxGeometry x="40" y="70" width="240" height="50" as="geometry" />
        </mxCell>
        <mxCell id="-fYDZlwDeqIMfoIdDq_f-18" value="" style="html=1;whiteSpace=wrap;" vertex="1" parent="1">
          <mxGeometry x="40" y="120" width="240" height="480" as="geometry" />
        </mxCell>
        <mxCell id="-fYDZlwDeqIMfoIdDq_f-21" value="Trang thanh toán" style="html=1;whiteSpace=wrap;" vertex="1" parent="1">
          <mxGeometry x="90" y="180" width="110" height="50" as="geometry" />
        </mxCell>
        <mxCell id="-fYDZlwDeqIMfoIdDq_f-22" value="" style="ellipse;html=1;shape=startState;fillColor=#000000;strokeColor=#ff0000;" vertex="1" parent="1">
          <mxGeometry x="130" y="120" width="30" height="30" as="geometry" />
        </mxCell>
        <mxCell id="-fYDZlwDeqIMfoIdDq_f-23" value="" style="edgeStyle=orthogonalEdgeStyle;html=1;verticalAlign=bottom;endArrow=open;endSize=8;strokeColor=#ff0000;rounded=0;entryX=0.5;entryY=0;entryDx=0;entryDy=0;" edge="1" source="-fYDZlwDeqIMfoIdDq_f-22" parent="1" target="-fYDZlwDeqIMfoIdDq_f-21">
          <mxGeometry relative="1" as="geometry">
            <mxPoint x="140" y="210" as="targetPoint" />
          </mxGeometry>
        </mxCell>
        <mxCell id="-fYDZlwDeqIMfoIdDq_f-24" value="Object" style="html=1;whiteSpace=wrap;" vertex="1" parent="1">
          <mxGeometry x="280" y="70" width="400" height="50" as="geometry" />
        </mxCell>
        <mxCell id="-fYDZlwDeqIMfoIdDq_f-25" value="" style="html=1;whiteSpace=wrap;" vertex="1" parent="1">
          <mxGeometry x="280" y="120" width="400" height="480" as="geometry" />
        </mxCell>
        <mxCell id="-fYDZlwDeqIMfoIdDq_f-26" value="Hiển thị giao diện trang thanh toán" style="html=1;whiteSpace=wrap;" vertex="1" parent="1">
          <mxGeometry x="440" y="220" width="110" height="50" as="geometry" />
        </mxCell>
        <mxCell id="-fYDZlwDeqIMfoIdDq_f-32" value="" style="endArrow=classic;html=1;rounded=0;entryX=0;entryY=0.5;entryDx=0;entryDy=0;exitX=0.5;exitY=1;exitDx=0;exitDy=0;edgeStyle=orthogonalEdgeStyle;" edge="1" parent="1" source="-fYDZlwDeqIMfoIdDq_f-21" target="-fYDZlwDeqIMfoIdDq_f-26">
          <mxGeometry width="50" height="50" relative="1" as="geometry">
            <mxPoint x="140" y="230" as="sourcePoint" />
            <mxPoint x="190" y="180" as="targetPoint" />
          </mxGeometry>
        </mxCell>
        <mxCell id="-fYDZlwDeqIMfoIdDq_f-33" value="Chọn các lựa chọn thanh toán" style="rounded=0;whiteSpace=wrap;html=1;" vertex="1" parent="1">
          <mxGeometry x="85" y="270" width="115" height="60" as="geometry" />
        </mxCell>
        <mxCell id="-fYDZlwDeqIMfoIdDq_f-34" value="" style="endArrow=classic;html=1;rounded=0;entryX=1;entryY=0.5;entryDx=0;entryDy=0;exitX=0.5;exitY=1;exitDx=0;exitDy=0;edgeStyle=orthogonalEdgeStyle;" edge="1" parent="1" source="-fYDZlwDeqIMfoIdDq_f-26" target="-fYDZlwDeqIMfoIdDq_f-33">
          <mxGeometry width="50" height="50" relative="1" as="geometry">
            <mxPoint x="400" y="330" as="sourcePoint" />
            <mxPoint x="450" y="280" as="targetPoint" />
          </mxGeometry>
        </mxCell>
        <mxCell id="-fYDZlwDeqIMfoIdDq_f-35" value="Kiểm tra thanh toán" style="rounded=0;whiteSpace=wrap;html=1;" vertex="1" parent="1">
          <mxGeometry x="430" y="340" width="120" height="40" as="geometry" />
        </mxCell>
        <mxCell id="-fYDZlwDeqIMfoIdDq_f-36" value="" style="endArrow=classic;html=1;rounded=0;exitX=0.5;exitY=1;exitDx=0;exitDy=0;entryX=0;entryY=0.5;entryDx=0;entryDy=0;edgeStyle=orthogonalEdgeStyle;" edge="1" parent="1" source="-fYDZlwDeqIMfoIdDq_f-33" target="-fYDZlwDeqIMfoIdDq_f-35">
          <mxGeometry width="50" height="50" relative="1" as="geometry">
            <mxPoint x="400" y="330" as="sourcePoint" />
            <mxPoint x="450" y="280" as="targetPoint" />
          </mxGeometry>
        </mxCell>
        <mxCell id="-fYDZlwDeqIMfoIdDq_f-38" value="" style="endArrow=classic;html=1;rounded=0;exitX=0.5;exitY=1;exitDx=0;exitDy=0;entryX=0.5;entryY=0;entryDx=0;entryDy=0;" edge="1" parent="1" source="-fYDZlwDeqIMfoIdDq_f-35" target="-fYDZlwDeqIMfoIdDq_f-39">
          <mxGeometry width="50" height="50" relative="1" as="geometry">
            <mxPoint x="490" y="550" as="sourcePoint" />
            <mxPoint x="540" y="500" as="targetPoint" />
          </mxGeometry>
        </mxCell>
        <mxCell id="-fYDZlwDeqIMfoIdDq_f-39" value="" style="rhombus;whiteSpace=wrap;html=1;" vertex="1" parent="1">
          <mxGeometry x="480" y="420" width="20" height="30" as="geometry" />
        </mxCell>
        <mxCell id="-fYDZlwDeqIMfoIdDq_f-40" value="" style="endArrow=classic;html=1;rounded=0;exitX=1;exitY=0.5;exitDx=0;exitDy=0;entryX=1;entryY=0.5;entryDx=0;entryDy=0;edgeStyle=orthogonalEdgeStyle;" edge="1" parent="1" source="-fYDZlwDeqIMfoIdDq_f-39" target="-fYDZlwDeqIMfoIdDq_f-26">
          <mxGeometry width="50" height="50" relative="1" as="geometry">
            <mxPoint x="540" y="520" as="sourcePoint" />
            <mxPoint x="590" y="470" as="targetPoint" />
            <Array as="points">
              <mxPoint x="590" y="435" />
              <mxPoint x="590" y="245" />
            </Array>
          </mxGeometry>
        </mxCell>
        <mxCell id="-fYDZlwDeqIMfoIdDq_f-41" value="Thất bại" style="edgeLabel;html=1;align=center;verticalAlign=middle;resizable=0;points=[];" vertex="1" connectable="0" parent="-fYDZlwDeqIMfoIdDq_f-40">
          <mxGeometry x="-0.1453" relative="1" as="geometry">
            <mxPoint x="-30" y="47" as="offset" />
          </mxGeometry>
        </mxCell>
        <mxCell id="-fYDZlwDeqIMfoIdDq_f-45" value="Thành công" style="edgeLabel;html=1;align=center;verticalAlign=middle;resizable=0;points=[];" vertex="1" connectable="0" parent="-fYDZlwDeqIMfoIdDq_f-40">
          <mxGeometry x="-0.0475" y="2" relative="1" as="geometry">
            <mxPoint x="-98" y="97" as="offset" />
          </mxGeometry>
        </mxCell>
        <mxCell id="-fYDZlwDeqIMfoIdDq_f-43" value="" style="endArrow=classic;html=1;rounded=0;exitX=0.5;exitY=1;exitDx=0;exitDy=0;entryX=0.5;entryY=0;entryDx=0;entryDy=0;" edge="1" parent="1" source="-fYDZlwDeqIMfoIdDq_f-39" target="-fYDZlwDeqIMfoIdDq_f-44">
          <mxGeometry width="50" height="50" relative="1" as="geometry">
            <mxPoint x="490" y="530" as="sourcePoint" />
            <mxPoint x="530" y="480" as="targetPoint" />
          </mxGeometry>
        </mxCell>
        <mxCell id="-fYDZlwDeqIMfoIdDq_f-44" value="Hiển thị trang thanh toán thành công" style="rounded=0;whiteSpace=wrap;html=1;" vertex="1" parent="1">
          <mxGeometry x="430" y="500" width="120" height="40" as="geometry" />
        </mxCell>
        <mxCell id="-fYDZlwDeqIMfoIdDq_f-46" value="" style="ellipse;html=1;shape=endState;fillColor=#000000;strokeColor=#ff0000;" vertex="1" parent="1">
          <mxGeometry x="475" y="560" width="30" height="30" as="geometry" />
        </mxCell>
        <mxCell id="-fYDZlwDeqIMfoIdDq_f-47" value="" style="endArrow=classic;html=1;rounded=0;exitX=0.5;exitY=1;exitDx=0;exitDy=0;entryX=0.5;entryY=0;entryDx=0;entryDy=0;" edge="1" parent="1" source="-fYDZlwDeqIMfoIdDq_f-44" target="-fYDZlwDeqIMfoIdDq_f-46">
          <mxGeometry width="50" height="50" relative="1" as="geometry">
            <mxPoint x="580" y="510" as="sourcePoint" />
            <mxPoint x="630" y="460" as="targetPoint" />
          </mxGeometry>
        </mxCell>
      </root>
    </mxGraphModel>
  </diagram>
</mxfile>
